# xmcd
#
# Track frame offsets:
#	150
#	18447
#	34365
#	47987
#	57897
#	70215
#	87812
#	101229
#	119317
#	131692
#	146662
#	160655
#	175997
#	195497
#	210190
#	221840
#	237857
#	253545
#	268130
#
# Disc length: 3774
#
# Revision: 1
# Processed by: cddbd v1.5.1PL0 Copyright (c) Steve Scherf et al.
# Submitted via: CDex 1.40Beta8
# Normalized: r0:TDELIM( - )
#
DISCID=180ebc13
DTITLE=Various Artist - Cowboy Forever Ii
DYEAR=1900
DGENRE=Country
TTITLE0=Neal Mecoy - Hill Billy Rap
TTITLE1=Garth Broks - American Honkey Tonk
TTITLE2=Terri Clark - Emotional Girl
TTITLE3=Sommy Kershow - Anywhere But Here
TTITLE4=The Mavericks - Watch Over Me
TTITLE5=Daryle Singletory - Too Much Fun
TTITLE6=Trisha Yearwood - I Wanna Go For
TTITLE7=Marty Stwart - If Ain't Got You
TTITLE8=David Lee Murphy - All Lit Up In Love
TTITLE9=Brooks And Dunn - White Line Casanova
TTITLE10=Confederate Raibroad - Elvis And Andy
TTITLE11=Sherrie Austin - Lusky In Love
TTITLE12=Blockhawk - Big Guitar
TTITLE13=Lee Roy Pawaell - If The House Is Rasking
TTITLE14=Tammy Graham - Houdini
TTITLE15=George Stroit - Adalida
TTITLE16=Mary Chopin Carpenter - I Feet Lucky
TTITLE17=Confederate Raibroad - Troshy Women
TTITLE18=David Lee Murphy - She Don't Try
EXTD=ID3G: 2
EXTT0=
EXTT1=
EXTT2=
EXTT3=
EXTT4=
EXTT5=
EXTT6=
EXTT7=
EXTT8=
EXTT9=
EXTT10=
EXTT11=
EXTT12=
EXTT13=
EXTT14=
EXTT15=
EXTT16=
EXTT17=
EXTT18=
PLAYORDER=
